# xmcd
# 
# Track frame offsets:
#     150
#     11687
#     39512
#     69725
#     85615
#     104820
#     136910
#     159290
#     178057
#     199730
# 
# Disc length: 2986
# 
# Revision: 1
# Processed by: cddbd v1.5.2PL0 Copyright (c) Steve Scherf et al.
# Submitted via: BonkEnc v1.0.8
# 
DISCID=820ba80a
DTITLE=Kullrusk [Per ''Ruskträsk" Johansson/Jonas Kullhammar/Sven Lindvall/Martin Jonsson] - Kullrusk
DYEAR=2004
DGENRE=Contemporary Jazz
TTITLE0=Fanfar
TTITLE1=Alice the Babs
TTITLE2=Two'd
TTITLE3=Ove 2004
TTITLE4=Farmen
TTITLE5=Hard Shit Luxury
TTITLE6=Randy (the Band)
TTITLE7=Missionären
TTITLE8=Kalimero
TTITLE9=When a Man Loves a Woman
EXTD=YEAR: 2004
EXTT0=
EXTT1=
EXTT2=
EXTT3=
EXTT4=
EXTT5=
EXTT6=
EXTT7=
EXTT8=
EXTT9=
PLAYORDER=
